{
	"patcher" : 	{
		"fileversion" : 1,
		"rect" : [ 57.0, 260.0, 640.0, 506.0 ],
		"bglocked" : 0,
		"defrect" : [ 57.0, 260.0, 640.0, 506.0 ],
		"openrect" : [ 0.0, 0.0, 0.0, 0.0 ],
		"openinpresentation" : 0,
		"default_fontsize" : 12.0,
		"default_fontface" : 0,
		"default_fontname" : "Arial",
		"gridonopen" : 0,
		"gridsize" : [ 15.0, 15.0 ],
		"gridsnaponopen" : 0,
		"toolbarvisible" : 1,
		"boxanimatetime" : 200,
		"imprint" : 0,
		"boxes" : [ 			{
				"box" : 				{
					"fontname" : "Arial",
					"fontsize" : 9.0,
					"id" : "obj-176",
					"maxclass" : "newobj",
					"numinlets" : 0,
					"numoutlets" : 1,
					"outlettype" : [ "" ],
					"patching_rect" : [ 179.0, 119.0, 70.0, 17.0 ],
					"text" : "r 64sync-out"
				}

			}
, 			{
				"box" : 				{
					"fontname" : "Arial",
					"fontsize" : 9.0,
					"id" : "obj-27",
					"maxclass" : "newobj",
					"numinlets" : 1,
					"numoutlets" : 0,
					"patching_rect" : [ 195.0, 427.0, 56.0, 17.0 ],
					"text" : "s tr_pulse"
				}

			}
, 			{
				"box" : 				{
					"fontname" : "Arial",
					"fontsize" : 9.0,
					"id" : "obj-2",
					"maxclass" : "newobj",
					"numinlets" : 1,
					"numoutlets" : 0,
					"patching_rect" : [ 306.0, 461.0, 99.0, 17.0 ],
					"text" : "s tr_pulse_duration"
				}

			}
, 			{
				"box" : 				{
					"fontname" : "Arial",
					"fontsize" : 9.0,
					"id" : "obj-3",
					"maxclass" : "newobj",
					"numinlets" : 1,
					"numoutlets" : 1,
					"outlettype" : [ "" ],
					"patching_rect" : [ 306.0, 437.0, 104.0, 17.0 ],
					"text" : "expr (60000/$i1)/4"
				}

			}
, 			{
				"box" : 				{
					"fontname" : "Arial",
					"fontsize" : 9.0,
					"id" : "obj-20",
					"maxclass" : "newobj",
					"numinlets" : 2,
					"numoutlets" : 2,
					"outlettype" : [ "float", "" ],
					"patching_rect" : [ 183.0, 372.0, 34.0, 17.0 ],
					"text" : "timer"
				}

			}
, 			{
				"box" : 				{
					"fontname" : "Arial",
					"fontsize" : 9.0,
					"id" : "obj-23",
					"maxclass" : "newobj",
					"numinlets" : 1,
					"numoutlets" : 2,
					"outlettype" : [ "bang", "bang" ],
					"patching_rect" : [ 207.0, 323.0, 27.0, 17.0 ],
					"text" : "b"
				}

			}
, 			{
				"box" : 				{
					"fontname" : "Arial",
					"fontsize" : 9.0,
					"id" : "obj-26",
					"maxclass" : "newobj",
					"numinlets" : 1,
					"numoutlets" : 0,
					"patching_rect" : [ 114.0, 450.0, 60.0, 17.0 ],
					"text" : "s tr_tempo"
				}

			}
, 			{
				"box" : 				{
					"fontname" : "Arial",
					"fontsize" : 9.0,
					"id" : "obj-29",
					"maxclass" : "newobj",
					"numinlets" : 1,
					"numoutlets" : 3,
					"outlettype" : [ "", "int", "int" ],
					"patching_rect" : [ 207.0, 300.0, 40.0, 17.0 ],
					"text" : "change"
				}

			}
, 			{
				"box" : 				{
					"fontname" : "Arial",
					"fontsize" : 9.0,
					"id" : "obj-30",
					"maxclass" : "newobj",
					"numinlets" : 2,
					"numoutlets" : 1,
					"outlettype" : [ "int" ],
					"patching_rect" : [ 207.0, 279.0, 27.0, 17.0 ],
					"text" : "/ 6"
				}

			}
, 			{
				"box" : 				{
					"fontname" : "Arial",
					"fontsize" : 9.0,
					"id" : "obj-31",
					"maxclass" : "message",
					"numinlets" : 2,
					"numoutlets" : 1,
					"outlettype" : [ "" ],
					"patching_rect" : [ 249.0, 234.0, 16.0, 15.0 ],
					"text" : "0"
				}

			}
, 			{
				"box" : 				{
					"fontname" : "Arial",
					"fontsize" : 9.0,
					"id" : "obj-32",
					"maxclass" : "newobj",
					"numinlets" : 5,
					"numoutlets" : 4,
					"outlettype" : [ "int", "", "", "int" ],
					"patching_rect" : [ 207.0, 256.0, 66.0, 17.0 ],
					"text" : "counter"
				}

			}
, 			{
				"box" : 				{
					"fontname" : "Arial",
					"fontsize" : 9.0,
					"id" : "obj-33",
					"maxclass" : "newobj",
					"numinlets" : 1,
					"numoutlets" : 4,
					"outlettype" : [ "", "", "", "" ],
					"patching_rect" : [ 179.0, 146.0, 148.0, 17.0 ],
					"text" : "route 250 252 248"
				}

			}
 ],
		"lines" : [ 			{
				"patchline" : 				{
					"destination" : [ "obj-33", 0 ],
					"hidden" : 0,
					"midpoints" : [  ],
					"source" : [ "obj-176", 0 ]
				}

			}
, 			{
				"patchline" : 				{
					"destination" : [ "obj-27", 0 ],
					"hidden" : 0,
					"midpoints" : [  ],
					"source" : [ "obj-20", 0 ]
				}

			}
, 			{
				"patchline" : 				{
					"destination" : [ "obj-3", 0 ],
					"hidden" : 0,
					"midpoints" : [  ],
					"source" : [ "obj-20", 0 ]
				}

			}
, 			{
				"patchline" : 				{
					"destination" : [ "obj-26", 0 ],
					"hidden" : 0,
					"midpoints" : [  ],
					"source" : [ "obj-20", 0 ]
				}

			}
, 			{
				"patchline" : 				{
					"destination" : [ "obj-20", 0 ],
					"hidden" : 0,
					"midpoints" : [  ],
					"source" : [ "obj-23", 0 ]
				}

			}
, 			{
				"patchline" : 				{
					"destination" : [ "obj-32", 0 ],
					"hidden" : 0,
					"midpoints" : [  ],
					"source" : [ "obj-33", 2 ]
				}

			}
, 			{
				"patchline" : 				{
					"destination" : [ "obj-30", 0 ],
					"hidden" : 0,
					"midpoints" : [  ],
					"source" : [ "obj-32", 0 ]
				}

			}
, 			{
				"patchline" : 				{
					"destination" : [ "obj-29", 0 ],
					"hidden" : 0,
					"midpoints" : [  ],
					"source" : [ "obj-30", 0 ]
				}

			}
, 			{
				"patchline" : 				{
					"destination" : [ "obj-23", 0 ],
					"hidden" : 0,
					"midpoints" : [  ],
					"source" : [ "obj-29", 0 ]
				}

			}
, 			{
				"patchline" : 				{
					"destination" : [ "obj-20", 1 ],
					"hidden" : 0,
					"midpoints" : [  ],
					"source" : [ "obj-23", 0 ]
				}

			}
, 			{
				"patchline" : 				{
					"destination" : [ "obj-31", 0 ],
					"hidden" : 0,
					"midpoints" : [  ],
					"source" : [ "obj-33", 0 ]
				}

			}
, 			{
				"patchline" : 				{
					"destination" : [ "obj-32", 3 ],
					"hidden" : 0,
					"midpoints" : [  ],
					"source" : [ "obj-31", 0 ]
				}

			}
, 			{
				"patchline" : 				{
					"destination" : [ "obj-2", 0 ],
					"hidden" : 0,
					"midpoints" : [  ],
					"source" : [ "obj-3", 0 ]
				}

			}
 ]
	}

}
